<?xml version="1.0" encoding="UTF-8" standalone="no"?>
<!-- Created with Inkscape (http://www.inkscape.org/) -->

<svg
   width="153.28979mm"
   height="98.954384mm"
   viewBox="0 0 153.2898 98.954384"
   version="1.1"
   id="svg5"
   inkscape:version="1.2.2 (b0a8486541, 2022-12-01)"
   sodipodi:docname="front_circulation.svg"
   xmlns:inkscape="http://www.inkscape.org/namespaces/inkscape"
   xmlns:sodipodi="http://sodipodi.sourceforge.net/DTD/sodipodi-0.dtd"
   xmlns:xlink="http://www.w3.org/1999/xlink"
   xmlns="http://www.w3.org/2000/svg"
   xmlns:svg="http://www.w3.org/2000/svg">
  <sodipodi:namedview
     id="namedview7"
     pagecolor="#ffffff"
     bordercolor="#666666"
     borderopacity="1.0"
     inkscape:showpageshadow="2"
     inkscape:pageopacity="0.0"
     inkscape:pagecheckerboard="0"
     inkscape:deskcolor="#d1d1d1"
     inkscape:document-units="mm"
     showgrid="false"
     inkscape:zoom="2.0000001"
     inkscape:cx="313.74999"
     inkscape:cy="226.49999"
     inkscape:window-width="1920"
     inkscape:window-height="1043"
     inkscape:window-x="1366"
     inkscape:window-y="0"
     inkscape:window-maximized="1"
     inkscape:current-layer="layer1" />
  <defs
     id="defs2">
    <inkscape:path-effect
       effect="perspective-envelope"
       up_left_point="137.05877,81.019036"
       up_right_point="194.11218,66.065395"
       down_left_point="137.05882,97.68572"
       down_right_point="194.17586,80.979205"
       id="path-effect1390"
       is_visible="true"
       lpeversion="1"
       deform_type="perspective"
       horizontal_mirror="false"
       vertical_mirror="false"
       overflow_perspective="false" />
    <inkscape:path-effect
       effect="mirror_symmetry"
       start_point="168.74944,50.02657"
       end_point="168.74944,75.990538"
       center_point="168.74944,63.008554"
       id="path-effect1229"
       is_visible="true"
       lpeversion="1.2"
       lpesatellites=""
       mode="free"
       discard_orig_path="false"
       fuse_paths="false"
       oposite_fuse="false"
       split_items="false"
       split_open="false"
       link_styles="false" />
    <inkscape:path-effect
       effect="perspective-envelope"
       up_left_point="71.524893,49.174949"
       up_right_point="76.819157,50.304878"
       down_left_point="71.604305,53.058696"
       down_right_point="76.393582,53.657555"
       id="path-effect1669"
       is_visible="true"
       lpeversion="1"
       deform_type="perspective"
       horizontal_mirror="false"
       vertical_mirror="false"
       overflow_perspective="false" />
    <inkscape:path-effect
       effect="bool_op"
       operand-path="#path48970"
       id="path-effect49314"
       is_visible="true"
       lpeversion="1.2"
       operation="union"
       swap-operands="false"
       filltype-this="from-curve"
       filter=""
       filltype-operand="from-curve" />
    <inkscape:path-effect
       effect="perspective-envelope"
       up_left_point="71.524893,49.174949"
       up_right_point="76.819157,50.304878"
       down_left_point="71.604305,53.058696"
       down_right_point="76.393582,53.657555"
       id="path-effect48972"
       is_visible="false"
       lpeversion="1"
       deform_type="perspective"
       horizontal_mirror="false"
       vertical_mirror="false"
       overflow_perspective="false" />
    <inkscape:path-effect
       effect="bool_op"
       operand-path="#path48091"
       id="path-effect48132"
       is_visible="true"
       lpeversion="1.2"
       operation="union"
       swap-operands="false"
       filltype-this="from-curve"
       filter=""
       filltype-operand="from-curve" />
    <inkscape:path-effect
       effect="fill_between_strokes"
       id="path-effect47283"
       is_visible="true"
       lpeversion="1.2"
       linkedpath="M 91.878121,46.446513 A 6.0650539,12.055376 0 0 1 91.828071,29.559467"
       secondpath="M 91.878121,46.446513 A 6.0650539,12.055376 0 0 1 91.828071,29.559467"
       reversesecond="true"
       join="true"
       close="true" />
    <inkscape:path-effect
       effect="fill_between_strokes"
       id="path-effect46805"
       is_visible="true"
       lpeversion="1.2"
       linkedpath=""
       secondpath="M 91.878121,46.446513 A 6.0650539,12.055376 0 0 1 91.828071,29.559467"
       reversesecond="false"
       join="true"
       close="true" />
    <inkscape:path-effect
       effect="clone_original"
       linkeditem=""
       id="path-effect46633"
       is_visible="true"
       lpeversion="1"
       method="d"
       attributes=""
       css_properties=""
       allow_transforms="true" />
    <inkscape:path-effect
       effect="perspective-envelope"
       up_left_point="70.806334,55.309677"
       up_right_point="91.59242,50.247566"
       down_left_point="70.97949,83.328643"
       down_right_point="91.387523,77.590619"
       id="path-effect44403"
       is_visible="true"
       lpeversion="1"
       deform_type="perspective"
       horizontal_mirror="false"
       vertical_mirror="false"
       overflow_perspective="false" />
    <inkscape:path-effect
       effect="perspective-envelope"
       up_left_point="61.249702,5.8327669"
       up_right_point="81.913818,6.7335924"
       down_left_point="58.953705,10.94836"
       down_right_point="82.892899,11.582249"
       id="path-effect40418"
       is_visible="true"
       lpeversion="1"
       deform_type="perspective"
       horizontal_mirror="false"
       vertical_mirror="false"
       overflow_perspective="false" />
    <inkscape:path-effect
       effect="perspective-envelope"
       up_left_point="41.318472,-1.4351048"
       up_right_point="80.658909,22.113664"
       down_left_point="33.373722,1.1173267"
       down_right_point="73.767386,23.867534"
       id="path-effect34161"
       is_visible="false"
       lpeversion="1"
       deform_type="perspective"
       horizontal_mirror="false"
       vertical_mirror="false"
       overflow_perspective="false" />
    <inkscape:path-effect
       effect="bool_op"
       id="path-effect34157"
       is_visible="true"
       lpeversion="1.2"
       operand-path=""
       operation="union"
       swap-operands="false"
       filltype-this="positive"
       filter=""
       filltype-operand="positive" />
    <inkscape:path-effect
       effect="powerstroke"
       id="path-effect34153"
       is_visible="true"
       lpeversion="1"
       offset_points="0.2,0.13249999 | 1,0.13249999 | 1.8,0.13249999"
       not_jump="false"
       sort_points="true"
       interpolator_type="Linear"
       interpolator_beta="0"
       start_linecap_type="butt"
       linejoin_type="round"
       miter_limit="4"
       scale_width="6.2"
       end_linecap_type="butt" />
    <linearGradient
       id="linearGradient22674">
      <stop
         style="stop-color:#082e1e;stop-opacity:1;"
         offset="0"
         id="stop22668" />
      <stop
         style="stop-color:#125c3c;stop-opacity:1;"
         offset="0.40328735"
         id="stop22670" />
      <stop
         style="stop-color:#aedaf2;stop-opacity:0;"
         offset="1"
         id="stop22672" />
    </linearGradient>
    <inkscape:path-effect
       effect="bool_op"
       operand-path=""
       id="path-effect17489"
       is_visible="true"
       lpeversion="1"
       operation="union"
       swap-operands="false"
       filltype-this="from-curve"
       filter=""
       filltype-operand="from-curve" />
    <inkscape:path-effect
       effect="bool_op"
       operand-path="#path2799"
       id="path-effect16975"
       is_visible="true"
       lpeversion="1"
       operation="union"
       swap-operands="false"
       filltype-this="from-curve"
       filter=""
       filltype-operand="from-curve" />
    <linearGradient
       id="depth">
      <stop
         style="stop-color:#70bcde;stop-opacity:1;"
         offset="0.20162843"
         id="stop4885" />
      <stop
         style="stop-color:#aedaf2;stop-opacity:1;"
         offset="0.77108234"
         id="stop4887" />
    </linearGradient>
    <inkscape:path-effect
       effect="perspective-envelope"
       up_left_point="79.58338,52.953022"
       up_right_point="115.03002,42.449315"
       down_left_point="79.58338,99.568255"
       down_right_point="115.03002,88.3379"
       id="path-effect68370"
       is_visible="true"
       lpeversion="1"
       deform_type="perspective"
       horizontal_mirror="false"
       vertical_mirror="false"
       overflow_perspective="false" />
    <inkscape:path-effect
       effect="clone_original"
       linkeditem=""
       method="none"
       allow_transforms="false"
       id="path-effect66994"
       lpeversion="1"
       is_visible="true"
       attributes=""
       css_properties="" />
    <inkscape:path-effect
       effect="mirror_symmetry"
       start_point="203.45001,46.54372"
       end_point="203.45001,102.8318"
       center_point="203.45001,74.68776"
       id="path-effect66982"
       is_visible="true"
       lpeversion="1.2"
       lpesatellites=""
       mode="free"
       discard_orig_path="false"
       fuse_paths="false"
       oposite_fuse="false"
       split_items="false"
       split_open="false"
       link_styles="false" />
    <inkscape:path-effect
       effect="clone_original"
       linkeditem=""
       method="none"
       allow_transforms="true"
       id="path-effect66972"
       lpeversion="1"
       is_visible="true"
       attributes=""
       css_properties="" />
    <inkscape:path-effect
       effect="skeletal"
       id="path-effect66962"
       is_visible="true"
       lpeversion="1"
       pattern="M 0.44999976,4.3256925 4.3257097,0.4499814 8.2014298,4.3256975"
       copytype="repeated"
       prop_scale="0.84"
       scale_y_rel="false"
       spacing="22.3"
       normal_offset="0"
       tang_offset="0"
       prop_units="false"
       vertical_pattern="true"
       hide_knot="false"
       fuse_tolerance="0" />
    <inkscape:path-effect
       effect="bend_path"
       id="path-effect66950"
       is_visible="true"
       lpeversion="1"
       bendpath="m 152.92607,74.68776 h 50.52394"
       prop_scale="1"
       scale_y_rel="false"
       vertical="false"
       hide_knot="false" />
    <inkscape:path-effect
       effect="attach_path"
       id="path-effect66942"
       lpeversion="1"
       is_visible="true"
       startpath=""
       startposition="0"
       startcurvestart="0,0 , 20,0"
       startcurveend="0,0 , 20,0"
       endpath=""
       endposition="0"
       endcurvestart="0,0 , 20,0"
       endcurveend="0,0 , 20,0" />
    <inkscape:path-effect
       effect="clone_original"
       linkeditem=""
       id="path-effect66706"
       is_visible="true"
       lpeversion="1"
       method="d"
       attributes=""
       css_properties=""
       allow_transforms="false" />
    <inkscape:path-effect
       effect="skeletal"
       id="path-effect65045"
       is_visible="true"
       lpeversion="1"
       pattern="m 32.146895,-43.51184 -3.767708,3.494367 -3.767717,-3.494371"
       copytype="repeated"
       prop_scale="0.84"
       scale_y_rel="false"
       spacing="29.2"
       normal_offset="0"
       tang_offset="6.4"
       prop_units="false"
       vertical_pattern="true"
       hide_knot="false"
       fuse_tolerance="0" />
    <inkscape:path-effect
       effect="mirror_symmetry"
       start_point="97.909658,10.961043"
       end_point="115.18902,10.961043"
       center_point="106.54934,10.961043"
       id="path-effect59727"
       is_visible="true"
       lpeversion="1.2"
       lpesatellites=""
       mode="free"
       discard_orig_path="true"
       fuse_paths="false"
       oposite_fuse="false"
       split_items="false"
       split_open="false"
       link_styles="false" />
    <inkscape:path-effect
       effect="clone_original"
       linkeditem=""
       method="none"
       allow_transforms="true"
       id="path-effect59713"
       lpeversion="1"
       is_visible="true"
       attributes=""
       css_properties="" />
    <inkscape:path-effect
       effect="perspective-envelope"
       up_left_point="110.49749,14.663076"
       up_right_point="123.13076,22.996686"
       down_left_point="93.194775,18.476135"
       down_right_point="106.57113,26.599114"
       id="path-effect58467"
       is_visible="true"
       lpeversion="1"
       deform_type="perspective"
       horizontal_mirror="false"
       vertical_mirror="false"
       overflow_perspective="false" />
    <inkscape:path-effect
       effect="mirror_symmetry"
       start_point="17.052876,-134.78821"
       end_point="302.7658,-111.07229"
       center_point="159.90934,-122.93025"
       id="path-effect57355"
       is_visible="true"
       lpeversion="1.2"
       lpesatellites=""
       mode="free"
       discard_orig_path="true"
       fuse_paths="false"
       oposite_fuse="false"
       split_items="false"
       split_open="false"
       link_styles="false" />
    <inkscape:path-effect
       effect="clone_original"
       linkeditem=""
       method="none"
       allow_transforms="true"
       id="path-effect57341"
       lpeversion="1"
       is_visible="true"
       attributes=""
       css_properties="" />
    <inkscape:path-effect
       effect="perspective-envelope"
       up_left_point="106.75333,-110.18239"
       up_right_point="307.62934,6.2160371"
       down_left_point="-118.86621,-38.955107"
       down_right_point="82.009361,77.444495"
       id="path-effect57309"
       is_visible="true"
       lpeversion="1"
       deform_type="perspective"
       horizontal_mirror="false"
       vertical_mirror="false"
       overflow_perspective="false" />
    <inkscape:path-effect
       effect="bend_path"
       id="path-effect53673"
       is_visible="true"
       lpeversion="1"
       bendpath="m -59.15609,-31.030913 275.8493,19.39085"
       prop_scale="-0.83198275"
       scale_y_rel="false"
       vertical="false"
       hide_knot="false"
       bendpath-nodetypes="cc" />
    <inkscape:path-effect
       effect="mirror_symmetry"
       start_point="80.833995,-13.159801"
       end_point="-72.893882,-31.653119"
       center_point="3.9700565,-22.40646"
       id="path-effect52375"
       is_visible="true"
       lpeversion="1.2"
       lpesatellites=""
       mode="free"
       discard_orig_path="true"
       fuse_paths="false"
       oposite_fuse="false"
       split_items="false"
       split_open="false"
       link_styles="false" />
    <inkscape:path-effect
       effect="mirror_symmetry"
       start_point="23.017085,-45.24404"
       end_point="5.1855148,109.32532"
       center_point="14.1013,32.04064"
       id="path-effect50765"
       is_visible="false"
       lpeversion="1.2"
       lpesatellites=""
       mode="free"
       discard_orig_path="true"
       fuse_paths="false"
       oposite_fuse="false"
       split_items="false"
       split_open="false"
       link_styles="false" />
    <inkscape:path-effect
       effect="clone_original"
       linkeditem=""
       method="d"
       allow_transforms="true"
       id="path-effect50751"
       lpeversion="1"
       is_visible="true"
       attributes=""
       css_properties="" />
    <inkscape:path-effect
       effect="mirror_symmetry"
       start_point="-13.528431,-21.963467"
       end_point="207.2518,-21.963467"
       center_point="96.861684,-21.963467"
       id="path-effect47899"
       is_visible="true"
       lpeversion="1.2"
       lpesatellites=""
       mode="free"
       discard_orig_path="false"
       fuse_paths="false"
       oposite_fuse="false"
       split_items="false"
       split_open="false"
       link_styles="false" />
    <inkscape:path-effect
       effect="mirror_symmetry"
       start_point="97.909657,10.961043"
       end_point="115.18902,10.961043"
       center_point="106.54934,10.961043"
       id="path-effect47207"
       is_visible="true"
       lpeversion="1.2"
       lpesatellites=""
       mode="free"
       discard_orig_path="true"
       fuse_paths="false"
       oposite_fuse="false"
       split_items="false"
       split_open="false"
       link_styles="false" />
    <inkscape:path-effect
       effect="clone_original"
       linkeditem=""
       method="d"
       allow_transforms="true"
       id="path-effect47193"
       lpeversion="1"
       is_visible="true"
       attributes=""
       css_properties="" />
    <inkscape:path-effect
       effect="mirror_symmetry"
       start_point="100.46088,-11.120795"
       end_point="117.74024,-11.120795"
       center_point="109.10056,-11.120795"
       id="path-effect44267"
       is_visible="true"
       lpeversion="1.2"
       lpesatellites=""
       mode="free"
       discard_orig_path="false"
       fuse_paths="false"
       oposite_fuse="false"
       split_items="true"
       split_open="false"
       link_styles="false" />
    <inkscape:path-effect
       effect="perspective-envelope"
       up_left_point="106.75333,-110.18239"
       up_right_point="307.62934,6.2160371"
       down_left_point="-118.86621,-38.955107"
       down_right_point="82.009361,77.444495"
       id="path-effect41544"
       is_visible="true"
       lpeversion="1"
       deform_type="perspective"
       horizontal_mirror="false"
       vertical_mirror="false"
       overflow_perspective="false" />
    <inkscape:path-effect
       effect="perspective-envelope"
       up_left_point="41.318472,-1.4351048"
       up_right_point="80.658909,22.113664"
       down_left_point="33.373722,1.1173267"
       down_right_point="73.767386,23.867534"
       id="path-effect32155"
       is_visible="true"
       lpeversion="1"
       deform_type="perspective"
       horizontal_mirror="false"
       vertical_mirror="false"
       overflow_perspective="false" />
    <inkscape:path-effect
       effect="bool_op"
       id="path-effect31895"
       is_visible="true"
       lpeversion="1.2"
       operand-path="#path18745"
       operation="union"
       swap-operands="false"
       filltype-this="positive"
       filter=""
       filltype-operand="positive" />
    <filter
       id="selectable_hidder_filter"
       width="1.0801426"
       height="1.07436"
       x="-0.052435881"
       y="-0.035160546"
       style="color-interpolation-filters:sRGB"
       inkscape:label="LPE boolean visibility">
      <feComposite
         id="boolops_hidder_primitive"
         result="composite1"
         operator="arithmetic"
         in2="SourceGraphic"
         in="BackgroundImage"
         k1="0"
         k2="0"
         k3="0"
         k4="0" />
    </filter>
    <inkscape:path-effect
       effect="bool_op"
       operand-path=""
       id="path-effect19678"
       is_visible="true"
       lpeversion="1"
       operation="diff"
       swap-operands="false"
       filltype-this="from-curve"
       filter=""
       filltype-operand="from-curve" />
    <inkscape:path-effect
       effect="powerstroke"
       id="path-effect18864"
       is_visible="true"
       lpeversion="1"
       offset_points="0.2,0.13249999 | 1,0.13249999 | 1.8,0.13249999"
       not_jump="false"
       sort_points="true"
       interpolator_type="Linear"
       interpolator_beta="0"
       start_linecap_type="butt"
       linejoin_type="round"
       miter_limit="4"
       scale_width="6.2"
       end_linecap_type="butt" />
    <inkscape:path-effect
       effect="perspective-envelope"
       up_left_point="38.708879,22.797997"
       up_right_point="74.731189,42.835727"
       down_left_point="33.218769,24.586551"
       down_right_point="69.891756,45.059233"
       id="path-effect17153"
       is_visible="true"
       lpeversion="1"
       deform_type="perspective"
       horizontal_mirror="false"
       vertical_mirror="false"
       overflow_perspective="false" />
    <linearGradient
       id="nutriments">
      <stop
         style="stop-color:#082e1e;stop-opacity:1;"
         offset="0"
         id="stop15119" />
      <stop
         style="stop-color:#125c3c;stop-opacity:1;"
         offset="0.35549092"
         id="stop20555" />
      <stop
         style="stop-color:#aedaf2;stop-opacity:1;"
         offset="1"
         id="stop15121" />
    </linearGradient>
    <marker
       style="overflow:visible"
       id="Arrow1L"
       refX="0"
       refY="0"
       orient="auto-start-reverse"
       inkscape:stockid="Arrow1L"
       markerWidth="8.75"
       markerHeight="5"
       viewBox="0 0 8.75 5"
       inkscape:isstock="true"
       inkscape:collect="always"
       preserveAspectRatio="xMidYMid">
      <path
         style="fill:context-stroke;fill-rule:evenodd;stroke:none"
         d="M 0,0 5,-5 -12.5,0 5,5 Z"
         id="arrow1L"
         transform="scale(-0.5)" />
    </marker>
    <inkscape:perspective
       sodipodi:type="inkscape:persp3d"
       inkscape:vp_x="-162.21173 : 87.086491 : 0"
       inkscape:vp_y="0 : 999.99991 : 0"
       inkscape:vp_z="203.42911 : 59.502227 : 0"
       inkscape:persp3d-origin="121.99376 : -241.96159 : 1"
       id="perspective240" />
    <linearGradient
       inkscape:collect="always"
       xlink:href="#depth"
       id="linearGradient13406"
       x1="143.21355"
       y1="112.38968"
       x2="115.39819"
       y2="37.5284"
       gradientUnits="userSpaceOnUse"
       gradientTransform="translate(-32.348982,-12.558133)" />
    <linearGradient
       inkscape:collect="always"
       xlink:href="#depth"
       id="linearGradient17445"
       x1="50.496311"
       y1="103.03166"
       x2="77.353134"
       y2="45.012993"
       gradientUnits="userSpaceOnUse"
       gradientTransform="translate(-32.348982,-12.558133)" />
    <linearGradient
       inkscape:collect="always"
       xlink:href="#linearGradient22674"
       id="linearGradient4890"
       gradientUnits="userSpaceOnUse"
       gradientTransform="translate(-32.348982,-12.558133)"
       x1="50.496311"
       y1="103.03166"
       x2="77.353134"
       y2="45.012993" />
    <filter
       inkscape:collect="always"
       style="color-interpolation-filters:sRGB"
       id="filter8608"
       x="-0.025762286"
       y="-0.059588957"
       width="1.0515246"
       height="1.1191779">
      <feGaussianBlur
         inkscape:collect="always"
         stdDeviation="1.2400492"
         id="feGaussianBlur8610" />
    </filter>
    <linearGradient
       inkscape:collect="always"
       xlink:href="#linearGradient22674"
       id="linearGradient17731"
       x1="99.286636"
       y1="99.473808"
       x2="85.868057"
       y2="34.721161"
       gradientUnits="userSpaceOnUse" />
    <clipPath
       clipPathUnits="userSpaceOnUse"
       id="clipPath22539">
      <path
         style="display:inline;opacity:0.760707;fill:#fc0000;fill-opacity:1;stroke:none;stroke-width:0.229394;stroke-opacity:1"
         d="M 11.836259,76.468544 V 23.899993 l 107.843861,10.56832 v 52.57931 L 62.626727,103.73555 Z"
         id="path22541"
         sodipodi:nodetypes="cccccc" />
    </clipPath>
    <filter
       id="selectable_hidder_filter-3"
       width="1.07436"
       height="1.07436"
       x="-0.052435882"
       y="-0.035160545"
       style="color-interpolation-filters:sRGB"
       inkscape:label="LPE boolean visibility">
      <feComposite
         id="boolops_hidder_primitive-6"
         result="composite1"
         operator="arithmetic"
         in2="SourceGraphic"
         in="BackgroundImage"
         k1="0"
         k2="0"
         k3="0"
         k4="0" />
    </filter>
    <clipPath
       clipPathUnits="userSpaceOnUse"
       id="clipPath7705">
      <path
         style="opacity:1;fill:#000000;fill-opacity:1;stroke:none;stroke-width:0.881946;stroke-dasharray:none;stroke-opacity:1;stop-color:#000000"
         d="M 132.41024,68.820615 V 16.297297 L 189.39993,-0.37482675 189.3994,52.145743 Z"
         id="path7707"
         sodipodi:nodetypes="ccccc" />
    </clipPath>
  </defs>
  <g
     inkscape:label="base&lt;1-&gt;"
     inkscape:groupmode="layer"
     id="layer1"
     style="display:inline"
     transform="translate(-11.35644,-5.9136319)">
    <rect
       style="display:inline;fill:#ffffff;fill-opacity:1;stroke:#ffffff;stroke-width:0.153;stroke-linejoin:round;stroke-dasharray:none;stroke-opacity:1;stop-color:#000000"
       id="rect27350"
       width="153.1368"
       height="98.801384"
       x="11.43294"
       y="5.9901319"
       inkscape:label="background" />
    <g
       sodipodi:type="inkscape:box3d"
       id="g242"
       style="display:inline;fill:#b5e0ef;fill-opacity:1;stroke:#ffffff;stroke-width:0.127353;stroke-dasharray:none;stroke-opacity:1"
       inkscape:perspectiveID="#perspective240"
       inkscape:corner0="0.74949204 : 0.25777254 : 0 : 1"
       inkscape:corner7="0.43599531 : 0.20512472 : 0.28077125 : 1">
      <path
         sodipodi:type="inkscape:box3dside"
         id="path254"
         style="fill:#b5e0ef;fill-opacity:1;fill-rule:evenodd;stroke:#ffffff;stroke-width:0.127353;stroke-linejoin:round;stroke-dasharray:none;stroke-opacity:1"
         inkscape:box3dsidetype="11"
         d="M 68.89084,7.0799418 119.74368,34.381272 V 87.029088 L 68.89084,59.727757 Z"
         points="119.74368,34.381272 119.74368,87.029088 68.89084,59.727757 68.89084,7.0799418 " />
      <path
         sodipodi:type="inkscape:box3dside"
         id="path244"
         style="fill:#b5e0ef;fill-opacity:1;fill-rule:evenodd;stroke:#ffffff;stroke-width:0.127353;stroke-linejoin:round;stroke-dasharray:none;stroke-opacity:1"
         inkscape:box3dsidetype="6"
         d="M 11.773799,23.786457 V 76.434272 L 68.89084,59.727757 V 7.0799418 Z"
         points="11.773799,76.434272 68.89084,59.727757 68.89084,7.0799418 11.773799,23.786457 " />
      <path
         sodipodi:type="inkscape:box3dside"
         id="path252"
         style="fill:#b5e0ef;fill-opacity:1;fill-rule:evenodd;stroke:#ffffff;stroke-width:0.127353;stroke-linejoin:round;stroke-dasharray:none;stroke-opacity:1"
         inkscape:box3dsidetype="13"
         d="M 11.773799,76.434272 62.626642,103.7356 119.74368,87.029088 68.89084,59.727757 Z"
         points="62.626642,103.7356 119.74368,87.029088 68.89084,59.727757 11.773799,76.434272 " />
      <path
         sodipodi:type="inkscape:box3dside"
         id="path246"
         style="fill:#b5e0ef;fill-opacity:1;fill-rule:evenodd;stroke:#ffffff;stroke-width:0.127353;stroke-linejoin:round;stroke-dasharray:none;stroke-opacity:1"
         inkscape:box3dsidetype="5"
         d="M 11.773799,23.786457 62.626642,51.087787 119.74368,34.381272 68.89084,7.0799418 Z"
         points="62.626642,51.087787 119.74368,34.381272 68.89084,7.0799418 11.773799,23.786457 " />
      <path
         sodipodi:type="inkscape:box3dside"
         id="path250"
         style="fill:#b5e0ef;fill-opacity:1;fill-rule:evenodd;stroke:#ffffff;stroke-width:0.127353;stroke-linejoin:round;stroke-dasharray:none;stroke-opacity:1"
         inkscape:box3dsidetype="14"
         d="M 62.626642,51.087787 V 103.7356 L 119.74368,87.029088 V 34.381272 Z"
         points="62.626642,103.7356 119.74368,87.029088 119.74368,34.381272 62.626642,51.087787 " />
      <path
         sodipodi:type="inkscape:box3dside"
         id="path248"
         style="fill:#b5e0ef;fill-opacity:1;fill-rule:evenodd;stroke:#ffffff;stroke-width:0.127353;stroke-linejoin:round;stroke-dasharray:none;stroke-opacity:1"
         inkscape:box3dsidetype="3"
         d="m 11.773799,23.786457 50.852843,27.30133 V 103.7356 L 11.773799,76.434272 Z"
         points="62.626642,51.087787 62.626642,103.7356 11.773799,76.434272 11.773799,23.786457 " />
    </g>
    <path
       id="path6987"
       style="fill:#afdbf2;fill-opacity:1;stroke:#ffffff;stroke-width:0.127353;stroke-linecap:butt;stroke-linejoin:miter;stroke-dasharray:none;stroke-opacity:1"
       d="M 68.890838,7.0799452 45.213209,14.00562 c 0.12002,0.04168 0.241433,0.0867 0.364319,0.134876 0.122885,0.04818 0.247037,0.09918 0.372587,0.153479 0.125549,0.05429 0.252325,0.112062 0.380338,0.172082 0.128013,0.06002 0.257298,0.122747 0.387573,0.188102 0.130276,0.06536 0.261439,0.133305 0.393775,0.203606 0.132336,0.0703 0.265779,0.142702 0.399975,0.217557 0.134197,0.07486 0.269289,0.151974 0.405144,0.230994 0.135855,0.07902 0.272481,0.160084 0.409794,0.242879 0.274625,0.16559 0.552223,0.338416 0.831474,0.516765 0.27925,0.178348 0.560059,0.362368 0.842325,0.550354 0.282267,0.187985 0.565887,0.379622 0.849561,0.574125 0.283673,0.194502 0.567639,0.391729 0.851111,0.589628 0.566944,0.395797 1.131783,0.795317 1.688269,1.185974 0.278243,0.195329 0.554641,0.38838 0.827856,0.577743 0.273216,0.189362 0.543191,0.374729 0.80977,0.555004 0.266579,0.180276 0.529731,0.355415 0.788066,0.523483 0.258334,0.168067 0.511679,0.329402 0.76016,0.482141 0.12424,0.07637 0.247494,0.150256 0.36897,0.222208 0.121475,0.07195 0.241675,0.141628 0.360184,0.208773 0.11851,0.06715 0.235024,0.131839 0.350367,0.193787 0.115342,0.06195 0.22909,0.121407 0.341064,0.177767 0.102567,0.05163 0.228647,0.108486 0.376204,0.171049 0.147558,0.06256 0.316532,0.130661 0.505396,0.204638 0.377727,0.147955 0.834629,0.319259 1.355473,0.515731 0.260422,0.09824 0.536665,0.202596 0.827339,0.313676 0.290675,0.111081 0.595881,0.229065 0.913123,0.353467 0.317242,0.124402 0.646894,0.255575 0.98702,0.393774 0.340126,0.1382 0.69074,0.283159 1.050065,0.435633 0.359325,0.152474 0.727419,0.312331 1.102258,0.479557 0.37484,0.167226 0.756414,0.342062 1.143083,0.524516 0.193335,0.09123 0.387826,0.184446 0.583427,0.279569 0.195601,0.09512 0.392221,0.191859 0.589628,0.290939 0.197407,0.09908 0.395531,0.200245 0.594281,0.30334 0.19875,0.103095 0.39826,0.208056 0.59789,0.315226 0.19964,0.107171 0.39939,0.216841 0.59945,0.328146 0.20006,0.111305 0.40046,0.224532 0.60048,0.340031 0.20003,0.115499 0.39992,0.233197 0.59945,0.35295 0.19953,0.119753 0.39829,0.241285 0.59686,0.365352 0.19857,0.124067 0.39661,0.250349 0.59376,0.378788 0.19716,0.12844 0.39384,0.259352 0.58911,0.392225 0.19528,0.132872 0.38946,0.267778 0.5824,0.405143 0.19293,0.137365 0.3845,0.277179 0.57464,0.419096 0.13947,0.104102 0.29242,0.214011 0.45837,0.329695 0.16595,0.115684 0.34495,0.237284 0.53537,0.363802 0.19041,0.126519 0.39225,0.258203 0.60513,0.394808 0.21287,0.136606 0.43691,0.277801 0.67024,0.423747 0.46666,0.291892 0.972,0.601787 1.50844,0.926558 0.53644,0.324772 1.10378,0.664285 1.69395,1.015959 1.18034,0.703349 2.45222,1.454735 3.75119,2.229838 0.64949,0.387552 1.30553,0.78118 1.96061,1.177706 0.65507,0.396526 1.30927,0.795752 1.95388,1.195276 0.14104,0.08742 0.27994,0.171676 0.41755,0.252698 0.13761,0.08102 0.27345,0.159137 0.40772,0.234094 0.13428,0.07496 0.2674,0.146786 0.39843,0.216007 0.13103,0.06922 0.26021,0.135655 0.38809,0.199471 0.12788,0.06382 0.25447,0.125227 0.3793,0.183969 0.12484,0.05874 0.24813,0.114984 0.37001,0.168981 0.12188,0.054 0.2422,0.105447 0.36122,0.15503 0.11901,0.04958 0.23669,0.09713 0.35295,0.142627 0.11625,0.0455 0.23109,0.089 0.34468,0.130741 0.11359,0.04174 0.22591,0.08157 0.33693,0.119889 0.22203,0.07664 0.43881,0.14695 0.65112,0.211874 0.21232,0.06492 0.41985,0.124502 0.62322,0.180351 0.20337,0.05585 0.40271,0.108198 0.5979,0.157613 0.39036,0.09883 0.76483,0.187527 1.12706,0.276469 0.18111,0.04447 0.35911,0.08892 0.53433,0.134875 0.17523,0.04596 0.3477,0.09305 0.5178,0.143144 0.17011,0.05009 0.3381,0.102817 0.50385,0.15968 0.0829,0.02843 0.16508,0.05826 0.24701,0.08888 0.0819,0.03062 0.16335,0.06246 0.24443,0.0956 0.0811,0.03314 0.16204,0.06737 0.24236,0.103353 0.0803,0.03599 0.16011,0.07349 0.23978,0.112654 0.0797,0.03917 0.15912,0.0798 0.23823,0.122473 0.0791,0.04267 0.15804,0.08733 0.236679,0.133842 l 23.488493,-6.870381 z" />
    <path
       id="path6975"
       style="fill:url(#linearGradient13406);fill-opacity:1;stroke:#ffffff;stroke-width:0.127353;stroke-linecap:butt;stroke-linejoin:miter;stroke-dasharray:none;stroke-opacity:1"
       d="m 119.74355,34.381121 -23.488493,6.870381 c 0,0 -0.0412,0.438241 -0.100769,1.149801 -0.0298,0.35578 -0.064,0.779786 -0.10025,1.251603 -0.0362,0.471817 -0.0742,0.991272 -0.11111,1.537891 -0.037,0.546619 -0.0734,1.120486 -0.10542,1.700671 -0.016,0.290093 -0.0307,0.582063 -0.0444,0.872815 -0.0138,0.290753 -0.0265,0.580356 -0.0372,0.866614 -0.0108,0.286258 -0.0198,0.568817 -0.0269,0.845426 -0.007,0.27661 -0.0118,0.547447 -0.0145,0.809253 -0.003,0.261806 -0.003,0.514695 -5.2e-4,0.756543 0.002,0.241849 0.007,0.472627 0.0155,0.689364 0.002,0.06225 0.003,0.127099 0.003,0.194303 -7.5e-4,0.0672 -0.003,0.13641 -0.007,0.208256 -0.004,0.07185 -0.009,0.146031 -0.0155,0.222209 -0.007,0.07618 -0.0145,0.154413 -0.0238,0.234611 -0.0186,0.160396 -0.0423,0.328716 -0.0708,0.503328 -0.0285,0.174613 -0.0619,0.355744 -0.0992,0.542086 -0.0373,0.186342 -0.0785,0.378024 -0.1235,0.573609 -0.045,0.195584 -0.0937,0.395039 -0.14521,0.597379 -0.0515,0.202341 -0.10583,0.407307 -0.16278,0.613916 -0.057,0.206609 -0.11654,0.414827 -0.17777,0.623218 -0.0612,0.208391 -0.12425,0.417082 -0.18862,0.624768 -0.0644,0.207686 -0.12999,0.41459 -0.19637,0.619084 -0.0664,0.204494 -0.13377,0.406833 -0.20102,0.605647 -0.0673,0.198815 -0.13454,0.393812 -0.20154,0.584461 -0.134,0.381297 -0.26607,0.743742 -0.39222,1.077453 -0.12616,0.333712 -0.24631,0.638625 -0.35554,0.904855 -0.0495,0.120561 -0.10056,0.237739 -0.15296,0.3514 -0.0524,0.113661 -0.10631,0.224197 -0.16123,0.331762 -0.0549,0.107566 -0.11093,0.211919 -0.16795,0.314193 -0.057,0.102274 -0.11492,0.202454 -0.17363,0.30024 -0.0587,0.09779 -0.1183,0.193218 -0.17829,0.287321 -0.06,0.0941 -0.12002,0.186796 -0.18086,0.278019 -0.12168,0.182447 -0.24481,0.359614 -0.36742,0.535368 -0.12262,0.175754 -0.24513,0.350056 -0.36536,0.525549 -0.12023,0.175494 -0.23842,0.352152 -0.35295,0.533818 -0.0573,0.09083 -0.11325,0.182887 -0.16846,0.276469 -0.0552,0.09358 -0.10952,0.189152 -0.16226,0.286287 -0.0528,0.09713 -0.10414,0.196164 -0.154,0.297657 -0.0499,0.101492 -0.0981,0.205471 -0.14469,0.312125 -0.19598,0.448828 -0.38243,0.885032 -0.56483,1.311031 -0.1824,0.425999 -0.36061,0.841712 -0.5395,1.247986 -0.0894,0.203137 -0.17929,0.40376 -0.26975,0.602547 -0.0905,0.198788 -0.18167,0.395319 -0.2744,0.590145 -0.0927,0.194826 -0.18693,0.388041 -0.28319,0.579293 -0.0963,0.191252 -0.19454,0.380891 -0.29559,0.568957 -0.10104,0.188067 -0.20503,0.374388 -0.31212,0.559656 -0.1071,0.185269 -0.21737,0.369563 -0.33177,0.552421 -0.1144,0.182859 -0.23256,0.36435 -0.35553,0.545187 -0.12297,0.180836 -0.25065,0.360816 -0.38344,0.540018 -0.0664,0.0896 -0.134,0.178936 -0.20309,0.268201 -0.0691,0.08926 -0.13993,0.178706 -0.21187,0.267684 -0.0719,0.08898 -0.1452,0.177395 -0.22014,0.266134 -0.075,0.08874 -0.15134,0.177584 -0.22945,0.266133 -0.0781,0.08855 -0.15783,0.17721 -0.23926,0.265617 -0.0814,0.08841 -0.16469,0.176787 -0.2496,0.2651 -0.0849,0.08831 -0.17138,0.176315 -0.25993,0.264584 -0.0885,0.08827 -0.17896,0.176827 -0.2713,0.2651 -0.0923,0.08827 -0.18573,0.174448 -0.27957,0.259415 -0.0938,0.08497 -0.18841,0.168311 -0.2837,0.250114 -0.0953,0.0818 -0.19114,0.162034 -0.28784,0.240812 -0.0967,0.07878 -0.1939,0.156133 -0.29197,0.232028 -0.0981,0.0759 -0.19722,0.150607 -0.29662,0.223759 -0.0994,0.07315 -0.19903,0.144942 -0.29973,0.21549 -0.10069,0.07055 -0.20243,0.139654 -0.30437,0.20774 -0.10195,0.06808 -0.20433,0.135258 -0.30748,0.201021 -0.10315,0.06576 -0.20677,0.130207 -0.31109,0.193786 -0.10432,0.06358 -0.20927,0.126048 -0.31471,0.187586 -0.21088,0.123075 -0.4241,0.242369 -0.63924,0.358118 -0.21513,0.115748 -0.43206,0.227903 -0.65112,0.337447 -0.21906,0.109543 -0.44035,0.216449 -0.66301,0.32091 -0.22265,0.104461 -0.4469,0.206458 -0.67282,0.306958 -0.22593,0.100501 -0.45327,0.199477 -0.68213,0.29714 -0.45772,0.195325 -0.92106,0.386003 -1.38855,0.576709 -0.46749,0.190706 -0.93923,0.381644 -1.41387,0.576709 -0.23731,0.09753 -0.47556,0.1958 -0.71417,0.296106 -0.2386,0.100305 -0.47769,0.20224 -0.71726,0.306441 -0.23958,0.104201 -0.49622,0.211138 -0.76688,0.31936 -0.27067,0.108223 -0.55498,0.217823 -0.8506,0.328662 -0.29561,0.11084 -0.60231,0.222812 -0.91674,0.334864 -0.31442,0.112052 -0.63667,0.224037 -0.96376,0.335897 -0.32709,0.11186 -0.65909,0.223566 -0.99271,0.333829 -0.33361,0.110264 -0.66904,0.219333 -1.00304,0.326595 -0.33399,0.107263 -0.66653,0.212887 -0.99477,0.315743 -0.32823,0.102857 -0.652081,0.202677 -0.968413,0.299724 -0.632665,0.194092 -1.235151,0.375527 -1.783354,0.537951 -0.548203,0.162424 -1.042153,0.306295 -1.456758,0.425814 -0.805583,0.232227 -1.275556,0.362177 -1.303797,0.370003 V 103.73555 L 119.74355,87.02907 Z" />
    <path
       id="path6978"
       style="fill:url(#linearGradient17445);fill-opacity:1;stroke:#ffffff;stroke-width:0.127353;stroke-linecap:butt;stroke-linejoin:miter;stroke-dasharray:none;stroke-opacity:1"
       d="m 62.626616,83.833399 c -0.129562,-0.03701 -0.279162,-0.08422 -0.446484,-0.14056 -0.167323,-0.05634 -0.352229,-0.121455 -0.551905,-0.19482 C 61.428552,83.424659 61.214061,83.343209 60.98744,83.25514 60.760819,83.16707 60.521948,83.072411 60.273788,82.971953 60.025629,82.871495 59.7681,82.76519 59.503809,82.65466 59.239519,82.54413 58.968536,82.429298 58.693523,82.311012 58.418509,82.192725 58.139278,82.070937 57.858949,81.94721 57.578619,81.823483 57.297378,81.697856 57.017139,81.571005 56.736901,81.444154 56.457821,81.316259 56.183082,81.1886 55.908343,81.060941 55.637662,80.933378 55.373829,80.807228 55.109996,80.681077 54.85292,80.55645 54.6054,80.434124 c -0.247519,-0.122327 -0.485269,-0.242449 -0.711067,-0.358635 -0.225799,-0.116186 -0.439535,-0.228684 -0.638204,-0.336413 -0.19867,-0.10773 -0.382154,-0.210519 -0.548287,-0.307475 -0.166134,-0.09696 -0.314677,-0.187951 -0.442867,-0.271818 -0.0641,-0.04193 -0.123138,-0.08218 -0.176734,-0.120406 -0.0536,-0.03823 -0.101757,-0.07481 -0.144177,-0.109038 -0.08484,-0.06846 -0.18096,-0.141652 -0.286804,-0.219624 -0.105844,-0.07797 -0.221595,-0.16067 -0.346232,-0.247014 -0.124637,-0.08634 -0.25824,-0.176172 -0.399459,-0.269751 -0.141219,-0.09358 -0.289861,-0.190745 -0.445451,-0.290421 -0.31118,-0.199352 -0.649194,-0.409918 -1.00459,-0.626835 -0.355396,-0.216918 -0.728603,-0.440209 -1.110526,-0.665593 -0.381924,-0.225383 -0.772476,-0.452727 -1.163237,-0.677478 -0.390761,-0.22475 -0.781326,-0.446956 -1.163236,-0.661975 -0.38191,-0.215018 -0.755158,-0.422896 -1.110527,-0.619084 -0.355369,-0.196187 -0.692934,-0.380546 -1.004073,-0.548803 -0.311139,-0.168258 -0.648552,-0.350319 -1.005623,-0.541569 -0.357072,-0.19125 -0.734067,-0.391683 -1.123446,-0.596863 -0.389379,-0.20518 -0.791348,-0.415237 -1.19941,-0.625285 -0.408061,-0.210048 -0.821947,-0.419948 -1.235067,-0.625802 -0.413119,-0.205853 -0.825347,-0.407367 -1.229899,-0.599963 -0.202276,-0.0963 -0.4029,-0.190352 -0.60048,-0.281636 -0.197579,-0.09128 -0.392247,-0.179962 -0.583427,-0.265101 -0.19118,-0.08514 -0.378645,-0.167087 -0.561723,-0.244946 -0.183077,-0.07786 -0.361579,-0.151728 -0.534851,-0.221175 -0.173271,-0.06945 -0.341565,-0.134401 -0.503328,-0.194303 -0.161763,-0.0599 -0.317054,-0.11459 -0.465605,-0.163815 -0.297101,-0.09845 -0.586558,-0.197106 -0.869714,-0.296106 -0.283156,-0.099 -0.560201,-0.19843 -0.833024,-0.298689 -0.272823,-0.10026 -0.541083,-0.201111 -0.807186,-0.303341 -0.266103,-0.10223 -0.530236,-0.205664 -0.793233,-0.310575 -0.262997,-0.104912 -0.525079,-0.211574 -0.788583,-0.319878 -0.263503,-0.108303 -0.528193,-0.218322 -0.795817,-0.330729 -0.535247,-0.224813 -1.082306,-0.458862 -1.655713,-0.704349 -0.143351,-0.06137 -0.288831,-0.127245 -0.436149,-0.197921 -0.147317,-0.07068 -0.296679,-0.145848 -0.447518,-0.224793 -0.150838,-0.07895 -0.303421,-0.161868 -0.457336,-0.248047 -0.153915,-0.08618 -0.309059,-0.175825 -0.465605,-0.2682 -0.156545,-0.09238 -0.314108,-0.187717 -0.472839,-0.285254 -0.158731,-0.09754 -0.318569,-0.197027 -0.479041,-0.29869 -0.320942,-0.203326 -0.644733,-0.414254 -0.969966,-0.627869 -0.325233,-0.213615 -0.651756,-0.42982 -0.977718,-0.645438 -0.325963,-0.215619 -0.651487,-0.430418 -0.974618,-0.639754 -0.323131,-0.209337 -0.643927,-0.413464 -0.960665,-0.608232 -0.158369,-0.09738 -0.315702,-0.192549 -0.471806,-0.284737 -0.156103,-0.09219 -0.311179,-0.18121 -0.464571,-0.267167 -0.613568,-0.34383 -1.358209,-0.769291 -2.162142,-1.222148 -0.401966,-0.226429 -0.818517,-0.459581 -1.241267,-0.692981 -0.422751,-0.2334 -0.851262,-0.467167 -1.276925,-0.694014 -0.212832,-0.113424 -0.424894,-0.225097 -0.635103,-0.334347 -0.21021,-0.10925 -0.418899,-0.215975 -0.624252,-0.31936 -0.205352,-0.103386 -0.407385,-0.203376 -0.605648,-0.299207 -0.198262,-0.09583 -0.392422,-0.187816 -0.581359,-0.274402 -0.188938,-0.08658 -0.372975,-0.167746 -0.550354,-0.243396 -0.17738,-0.07565 -0.348527,-0.145749 -0.512114,-0.208772 -0.163587,-0.06302 -0.319594,-0.119242 -0.467155,-0.167949 -0.07378,-0.02435 -0.145102,-0.04672 -0.214457,-0.06718 -0.03487,-0.01028 -0.06759,-0.01865 -0.101286,-0.02791 v 18.402494 l 50.85271,27.301178 z" />
    <text
       xml:space="preserve"
       style="font-size:2.51684px;line-height:1.25;font-family:sans-serif;text-align:center;text-anchor:middle;white-space:pre;inline-size:14.2864;display:inline;fill:#7f7f7f;fill-opacity:1;stroke-width:0.157302"
       x="26.170971"
       y="48.229733"
       id="text64081"
       transform="matrix(1.682006,0,0,1.682006,-21.93496,-40.107623)"><tspan
         x="26.170971"
         y="48.229733"
         id="tspan991">moins
</tspan><tspan
         x="26.170971"
         y="51.375784"
         id="tspan993">dense</tspan></text>
    <text
       xml:space="preserve"
       style="font-size:4.23333px;line-height:1.25;font-family:sans-serif;text-align:center;text-anchor:middle;fill:#7f7f7f;fill-opacity:1;stroke-width:0.264583"
       x="110.63274"
       y="44.227966"
       id="text64139"><tspan
         sodipodi:role="line"
         id="tspan64135"
         style="font-size:4.23333px;text-align:center;text-anchor:middle;fill:#7f7f7f;fill-opacity:1;stroke-width:0.264583"
         x="110.63274"
         y="44.227966">plus</tspan><tspan
         sodipodi:role="line"
         style="font-size:4.23333px;text-align:center;text-anchor:middle;fill:#7f7f7f;fill-opacity:1;stroke-width:0.264583"
         x="110.63274"
         y="49.51963"
         id="tspan64137">dense</tspan></text>
    <g
       id="g27063"
       transform="translate(5.1025939,-2.3234915)">
      <path
         style="fill:none;stroke:#000000;stroke-width:0.365125;stroke-linecap:butt;stroke-linejoin:miter;stroke-dasharray:none;stroke-opacity:1;marker-end:url(#Arrow1L)"
         d="M 8.1078297,98.039568 17.153416,95.393777"
         id="path1751" />
      <path
         id="path1129"
         style="fill:none;stroke:#000000;stroke-width:0.365125;stroke-linecap:butt;stroke-linejoin:miter;stroke-dasharray:none;stroke-opacity:1;marker-start:url(#Arrow1L);marker-end:url(#Arrow1L)"
         d="m 16.139274,102.40016 -8.0424853,-4.342142 0.01104,-8.356251"
         sodipodi:nodetypes="ccc" />
      <text
         xml:space="preserve"
         style="font-size:3.175px;line-height:1.25;font-family:sans-serif;stroke-width:0.264583"
         x="12.729428"
         y="104.1536"
         id="text64212"><tspan
           sodipodi:role="line"
           id="tspan64210"
           style="stroke-width:0.264583"
           x="12.729428"
           y="104.1536">x</tspan></text>
      <text
         xml:space="preserve"
         style="font-size:3.175px;line-height:1.25;font-family:sans-serif;stroke-width:0.264583"
         x="19.400671"
         y="97.347351"
         id="text64216"><tspan
           sodipodi:role="line"
           id="tspan64214"
           style="stroke-width:0.264583"
           x="19.400671"
           y="97.347351">y</tspan></text>
      <text
         xml:space="preserve"
         style="font-size:3.175px;line-height:1.25;font-family:sans-serif;stroke-width:0.264583"
         x="9.5905266"
         y="88.769875"
         id="text64220"><tspan
           sodipodi:role="line"
           id="tspan64218"
           style="stroke-width:0.264583"
           x="9.5905266"
           y="88.769875">z</tspan></text>
    </g>
    <path
       id="rect65105"
       style="display:none;opacity:1;fill:none;fill-rule:evenodd;stroke:#efe32b;stroke-width:1.57143;stroke-linecap:round;stroke-linejoin:round"
       d="m 171.22807,77.089614 3.87571,-3.875711 3.87572,3.875716"
       sodipodi:nodetypes="ccc"
       class="UnoptimicedTransforms"
       transform="matrix(-0.59422399,0,0,-0.55201161,257.15434,83.128531)" />
  </g>
  <g
     inkscape:groupmode="layer"
     id="layer7"
     inkscape:label="upwell&lt;6-&gt;"
     style="display:inline"
     transform="translate(-11.35644,-5.9136319)">
    <g
       id="g22531"
       clip-path="url(#clipPath22539)"
       style="opacity:0.762485">
      <g
         id="g8446"
         style="opacity:1;filter:url(#filter8608)"
         clip-path="none">
        <g
           id="g17083"
           style="fill:none;fill-opacity:1">
          <path
             style="display:inline;opacity:1;fill:url(#linearGradient17731);fill-opacity:1;stroke:none;stroke-width:0.229394;stroke-opacity:1"
             d="m 90.673527,84.844559 c -1.523374,-0.173563 -3.164258,0.381773 -4.603215,-0.149247 -2.035958,-0.751332 -3.94201,-2.190971 -5.128906,-4.007812 -1.369776,-2.096785 -1.560361,-4.794609 -1.859375,-7.28125 -0.35234,-2.930105 -0.161308,-5.913345 0.09375,-8.853516 0.116867,-1.347181 1.125472,-2.733732 0.65625,-4.001953 -0.08766,-0.236924 -0.331339,-0.532391 -0.580078,-0.488281 -2.065927,0.366358 -2.417181,3.487181 -3.128906,5.460938 -1.53567,4.258721 -1.542627,8.9217 -2.324219,13.380859 -0.580664,3.312817 0.0021,7.068232 -1.755859,9.935547 -1.042382,1.700172 -4.203791,1.692128 -4.779297,3.601562 -0.04386,0.145508 -0.0797,0.296518 -0.107696,0.451713 -0.08395,0.0169 -0.167204,0.03365 -0.249726,0.05024 -0.823211,0.16551 -1.572899,0.314999 -2.207031,0.439453 -1.268264,0.248907 -2.072266,0.402344 -2.072266,0.402344 V 109.5 L 122.56445,92.738281 V 77.578125 c 0,0 -3.15096,0.335792 -3.22265,0.363281 -0.18654,0.07152 -0.45126,0.177996 -0.80274,0.3125 -0.17574,0.06725 -0.3733,0.142399 -0.59375,0.222656 -0.22046,0.08026 -0.46493,0.166377 -0.73242,0.257813 -0.2675,0.09144 -0.55814,0.188273 -0.875,0.289063 -0.31685,0.100789 -0.6588,0.204186 -1.02734,0.3125 -0.36853,0.108315 -0.76301,0.219971 -1.18555,0.333984 -0.42254,0.114014 -0.87465,0.231724 -1.35352,0.349609 -0.33625,0.08278 -0.67389,0.160589 -1.01562,0.236328 -0.34173,0.07574 -0.68739,0.149293 -1.0332,0.21875 -0.3458,0.06946 -0.69254,0.135287 -1.04102,0.199219 -0.34847,0.06393 -0.69713,0.126385 -1.04687,0.185547 -0.69949,0.118326 -1.39956,0.226289 -2.09571,0.330078 -0.69615,0.10379 -1.38871,0.201568 -2.07031,0.296875 -0.6816,0.09531 -1.35394,0.188372 -2.00977,0.28125 -0.65584,0.09288 -1.29521,0.186702 -1.91406,0.283203 -0.618855,0.0965 -1.216445,0.196557 -1.787108,0.302735 -0.28533,0.05309 -0.564757,0.107419 -0.835937,0.164062 -0.27118,0.05664 -0.533435,0.114828 -0.789063,0.175781 -0.240425,0.05733 -0.479395,0.117747 -0.716796,0.179688 -0.237402,0.06194 -0.474652,0.125187 -0.708985,0.191406 -0.468665,0.132439 -0.930605,0.274325 -1.386719,0.421875 -0.456113,0.14755 -0.906416,0.300948 -1.349609,0.460938 -0.443193,0.159991 -0.87869,0.326332 -1.308594,0.496093 -0.333551,0.131712 -0.663171,0.265322 -0.988582,0.4012 z"
             id="path8917"
             sodipodi:nodetypes="sssssssssssscs"
             inkscape:label="upwell patch" />
          <path
             id="path2799"
             style="display:inline;opacity:1;mix-blend-mode:normal;fill:none;fill-opacity:1;stroke:none;stroke-width:0.127353;stroke-linecap:butt;stroke-linejoin:miter;stroke-dasharray:none;stroke-opacity:1"
             d="m 122.56348,77.578022 c 0,0 -3.15075,0.335985 -3.22244,0.363474 -0.18654,0.07152 -0.45106,0.178138 -0.80254,0.312642 -0.17574,0.06725 -0.37279,0.141434 -0.59324,0.221692 -0.22046,0.08026 -0.46425,0.166429 -0.73174,0.257865 -0.2675,0.09144 -0.55906,0.188083 -0.87592,0.288872 -0.31685,0.100789 -0.65879,0.205878 -1.02733,0.314192 -0.36853,0.108315 -0.76343,0.219817 -1.18597,0.33383 -0.42254,0.114014 -0.87299,0.230414 -1.35186,0.348299 -0.33625,0.08278 -0.67526,0.161973 -1.01699,0.237712 -0.34173,0.07574 -0.68617,0.148101 -1.03198,0.217558 -0.3458,0.06946 -0.6928,0.136056 -1.04128,0.199988 -0.34847,0.06393 -0.69825,0.125322 -1.04799,0.184484 -0.69949,0.118326 -1.39985,0.227457 -2.096,0.331246 -0.69615,0.10379 -1.38804,0.201833 -2.06964,0.29714 -0.6816,0.09531 -1.35283,0.188242 -2.00866,0.28112 -0.65584,0.09288 -1.29628,0.186169 -1.91513,0.28267 -0.618857,0.0965 -1.216312,0.196129 -1.786974,0.302307 -0.285331,0.05309 -0.563911,0.107688 -0.835091,0.164331 -0.27118,0.05664 -0.535022,0.115263 -0.790649,0.176216 -0.240425,0.05733 -0.479351,0.11686 -0.716752,0.178801 -0.237402,0.06194 -0.473118,0.126534 -0.707451,0.192753 -0.468665,0.132439 -0.931399,0.273096 -1.387512,0.420646 -0.456113,0.14755 -0.905562,0.301997 -1.348755,0.461987 -0.443193,0.159991 -0.880093,0.3253 -1.309997,0.495061 -0.429905,0.16976 -0.852925,0.343522 -1.269174,0.520381 -0.416248,0.17686 -0.825608,0.356663 -1.227832,0.537952 -0.402224,0.181289 -0.797625,0.364207 -1.185457,0.547253 -0.387832,0.183047 -0.767944,0.366153 -1.141016,0.548287 -0.746143,0.364269 -1.462778,0.724073 -2.147672,1.068669 -0.684894,0.344596 -1.338352,0.67416 -1.959054,0.977718 -0.310351,0.151779 -0.612654,0.297085 -0.906404,0.434599 -0.293751,0.137514 -0.57898,0.267512 -0.855762,0.38809 -0.276783,0.120578 -0.544639,0.231825 -0.804085,0.332796 -0.259447,0.100972 -0.51015,0.191574 -0.751892,0.270268 -0.244368,0.07955 -0.523938,0.163339 -0.833025,0.251147 -0.309086,0.08781 -0.648167,0.179582 -1.011307,0.273885 -0.36314,0.0943 -0.750508,0.191388 -1.157036,0.290422 -0.406527,0.09903 -0.83199,0.199789 -1.27124,0.30179 -0.8785,0.204003 -1.811543,0.412249 -2.756938,0.617534 -0.945394,0.205284 -1.903353,0.408026 -2.830318,0.60048 -0.926965,0.192454 -1.823139,0.374508 -2.64635,0.540019 -0.823211,0.16551 -1.573485,0.314279 -2.207617,0.438733 -1.268264,0.248906 -2.072742,0.401525 -2.072742,0.401525 V 109.50025 L 122.56348,92.737731 Z"
             inkscape:label="base nutr right"
             sodipodi:nodetypes="csssssssssssssssssssssssssssssssssssssssssscccc" />
        </g>
        <path
           id="path2802"
           style="display:inline;opacity:1;fill:url(#linearGradient4890);fill-opacity:1;stroke:none;stroke-width:0.127353;stroke-linecap:butt;stroke-linejoin:miter;stroke-dasharray:none;stroke-opacity:1"
           d="m 62.626668,93.784456 c -0.28383,-0.08466 -0.561467,-0.170408 -0.833024,-0.257348 -0.271556,-0.08694 -0.537134,-0.175033 -0.79685,-0.264067 -0.259717,-0.08903 -0.5134,-0.179327 -0.761711,-0.270268 -0.248311,-0.09094 -0.491298,-0.182775 -0.728638,-0.275435 -0.23734,-0.09266 -0.469278,-0.185895 -0.696081,-0.280086 -0.226803,-0.09419 -0.448376,-0.189203 -0.665076,-0.284737 -0.2167,-0.09553 -0.428588,-0.191664 -0.63562,-0.288355 -0.207032,-0.09669 -0.4094,-0.193796 -0.607198,-0.291455 -0.395596,-0.195317 -0.773033,-0.392599 -1.134298,-0.590662 -0.361264,-0.198063 -0.706221,-0.397038 -1.036629,-0.596346 -0.330408,-0.199307 -0.646271,-0.398846 -0.949296,-0.597896 -0.303025,-0.199049 -0.593182,-0.397505 -0.872298,-0.594796 -0.279117,-0.19729 -0.546954,-0.393532 -0.805636,-0.587561 -0.258682,-0.194029 -0.508104,-0.385892 -0.749825,-0.575158 -0.483442,-0.378533 -0.936598,-0.746104 -1.373043,-1.096574 -0.218222,-0.175235 -0.432204,-0.346147 -0.643888,-0.512114 -0.211684,-0.165966 -0.420799,-0.326944 -0.629419,-0.482141 -0.20862,-0.155196 -0.416771,-0.304593 -0.625802,-0.447518 -0.20903,-0.142925 -0.419088,-0.279092 -0.632002,-0.408244 -0.212915,-0.129151 -0.422403,-0.246871 -0.628903,-0.353983 -0.206499,-0.107112 -0.410111,-0.203802 -0.610815,-0.291455 -0.200704,-0.08765 -0.398751,-0.16642 -0.594279,-0.237195 -0.195528,-0.07077 -0.388322,-0.133692 -0.579293,-0.190169 -0.19097,-0.05648 -0.379858,-0.106135 -0.56689,-0.150895 -0.187032,-0.04476 -0.372325,-0.08478 -0.556039,-0.120407 -0.183713,-0.03562 -0.365723,-0.06705 -0.546736,-0.09612 -0.181013,-0.02907 -0.361087,-0.05552 -0.540019,-0.08061 -0.357864,-0.05019 -0.712313,-0.09492 -1.065568,-0.144694 -0.176627,-0.02489 -0.352763,-0.05092 -0.529167,-0.07958 -0.176403,-0.02866 -0.352884,-0.06008 -0.529683,-0.09508 -0.176799,-0.03501 -0.353937,-0.07389 -0.531751,-0.117823 -0.177813,-0.04394 -0.356437,-0.09287 -0.535884,-0.148311 -0.179447,-0.05545 -0.35987,-0.117532 -0.541569,-0.187069 -0.1817,-0.06954 -0.364749,-0.146335 -0.549321,-0.232544 -0.187606,-0.08763 -0.365795,-0.178378 -0.535884,-0.271818 -0.17009,-0.09344 -0.331741,-0.18984 -0.487309,-0.288354 -0.155568,-0.09851 -0.305027,-0.199457 -0.449068,-0.302307 -0.144042,-0.102851 -0.283069,-0.207744 -0.418579,-0.314193 -0.135511,-0.106449 -0.267418,-0.214186 -0.397392,-0.323494 -0.129974,-0.109309 -0.257557,-0.219816 -0.38499,-0.331246 -0.254865,-0.222861 -0.507825,-0.449526 -0.770495,-0.676445 -0.131335,-0.113459 -0.265297,-0.227181 -0.403076,-0.340547 -0.137779,-0.113367 -0.27963,-0.226463 -0.426848,-0.338998 -0.147218,-0.112535 -0.299751,-0.224414 -0.459403,-0.33538 -0.159652,-0.110965 -0.32618,-0.221038 -0.501262,-0.329696 -0.175081,-0.108657 -0.358915,-0.215815 -0.552421,-0.321427 -0.193505,-0.105612 -0.396924,-0.209264 -0.611849,-0.311092 -0.214924,-0.101828 -0.441239,-0.201901 -0.680578,-0.299207 -0.239339,-0.0973 -0.491345,-0.192176 -0.758093,-0.28422 -0.251227,-0.08669 -0.521187,-0.190537 -0.80822,-0.309025 -0.287032,-0.118488 -0.591301,-0.25141 -0.911055,-0.395842 -0.639508,-0.288862 -1.341528,-0.623839 -2.093413,-0.981335 -0.375942,-0.178748 -0.764343,-0.363232 -1.163753,-0.550354 -0.39941,-0.187122 -0.80959,-0.376735 -1.229382,-0.566374 -0.419793,-0.189638 -0.849136,-0.379041 -1.286227,-0.56534 -0.43709,-0.186299 -0.881948,-0.369634 -1.333252,-0.546737 -0.273411,-0.107293 -0.533178,-0.216014 -0.780314,-0.325561 -0.247135,-0.109547 -0.48162,-0.219805 -0.7059,-0.331246 -0.224279,-0.111441 -0.438013,-0.223955 -0.642855,-0.33693 C 19.547958,72.467608 19.351995,72.354184 19.163171,72.240035 18.974348,72.125886 18.79266,72.01135 18.616435,71.896387 18.44021,71.781423 18.2693,71.666089 18.102254,71.550671 c -0.33409,-0.230835 -0.653113,-0.462487 -0.971,-0.692981 -0.317887,-0.230493 -0.634728,-0.460023 -0.963765,-0.687296 -0.164519,-0.113637 -0.331927,-0.226706 -0.504362,-0.338998 -0.172435,-0.112291 -0.349531,-0.223759 -0.533301,-0.334346 -0.183771,-0.110587 -0.37405,-0.22014 -0.572575,-0.328662 -0.198525,-0.108522 -0.405485,-0.215847 -0.622184,-0.321944 -0.2167,-0.106098 -0.44332,-0.21088 -0.681612,-0.314193 -0.238293,-0.103313 -0.488071,-0.205239 -0.751376,-0.305408 -0.09887,-0.03761 -5.1491049,-1.877384 -5.4599139,-1.978372 V 79.296008 L 62.626668,110.00221 Z"
           inkscape:label="base nutr left"
           sodipodi:nodetypes="csssssssssssssssssssssssssssssssssssssssssssssssssssssssssssssssssssssscccc" />
      </g>
    </g>
    <path
       style="display:inline;opacity:1;fill:none;fill-opacity:1;stroke:#ffffff;stroke-width:0.13;stroke-dasharray:none;stroke-opacity:1"
       d="M 62.626668,83.779085 V 104.03727"
       id="path22233"
       sodipodi:nodetypes="cc"
       inkscape:label="white border" />
    <g
       id="g52012"
       inkscape:label="arrow">
      <path
         style="display:none;opacity:1;fill:#288330;fill-opacity:0.811765;fill-rule:nonzero;stroke:#ffffff;stroke-width:0.20606;stroke-linejoin:round;filter:url(#selectable_hidder_filter)"
         d="m 69.489434,69.173828 c -0.08654,2.532645 -0.130679,3.945237 -0.800919,4.996197 l 3.718277,1.086182 c -1.019976,-2.154769 -0.673351,-3.20608 -0.912037,-5.251687 l -0.844198,-0.253984 z"
         id="path48091"
         sodipodi:nodetypes="cccccc"
         class="UnoptimicedTransforms"
         transform="matrix(0.62928553,0,0,0.63248863,26.498428,26.192651)"
         inkscape:label="base" />
      <path
         style="opacity:1;fill:#e88b4e;fill-opacity:1;fill-rule:nonzero;stroke:#e37227;stroke-width:0.130019;stroke-linejoin:round;stroke-opacity:1"
         d="m 90.232248,29.878206 c -1.93366,4.306447 -2.041819,10.693467 -0.334606,15.230155 0.334886,1.09088 0.495885,1.786032 0.351769,2.416869 l 2.435615,-0.07784 C 91.749867,46.483755 91.624862,45.825311 91.215252,44.874633 89.621399,40.367532 89.759704,34.171858 91.642269,29.956138 l 1.304465,0.0721 -1.115819,-2.327304 -2.635602,2.119964 z"
         transform="matrix(0.94995791,0.31237794,-0.33544601,0.94205943,-0.06833692,0.13999962)"
         id="path47837"
         inkscape:path-effect="#path-effect48132;#path-effect49314"
         inkscape:original-d="m 90.452274,46.718338 c -0.07472,-0.519935 -0.299031,-0.963792 -0.434497,-1.300476 -1.883712,-4.68171 -1.759069,-11.512554 0.387504,-15.912042 l 1.42279,0.05365 c -2.300943,4.715875 -2.278686,12.225383 0.05005,16.887046 z"
         class="UnoptimicedTransforms"
         sodipodi:nodetypes="cscccc"
         inkscape:label="line" />
      <path
         id="path48970"
         style="display:none;opacity:1;fill:#288330;fill-opacity:0.811765;stroke:#ffffff;stroke-width:0.179745;filter:url(#selectable_hidder_filter)"
         inkscape:label="point"
         inkscape:transform-center-x="0.40453825"
         inkscape:transform-center-y="-0.18087019"
         d="m 76.393582,53.657555 -4.815847,-1.89831 4.428827,-1.627795 z"
         transform="matrix(0.72558095,0,0,0.72091955,22.725422,18.780847)"
         inkscape:path-effect="#path-effect1669"
         inkscape:original-d="m 76.529786,53.616823 c -1.69447,-0.643786 -3.388941,-1.287572 -5.083411,-1.931359 1.404771,-1.145561 2.809541,-2.291123 4.214312,-3.436684 0.2897,1.789348 0.5794,3.578695 0.869099,5.368043 z"
         class="UnoptimicedTransforms" />
    </g>
    <text
       xml:space="preserve"
       style="font-style:normal;font-variant:normal;font-weight:bold;font-stretch:normal;font-size:4.23333px;font-family:sans-serif;-inkscape-font-specification:'sans-serif Bold';text-align:center;text-anchor:middle;display:inline;opacity:1;fill:#e88b4e;fill-opacity:1;fill-rule:nonzero;stroke:none;stroke-width:0.13;stroke-linejoin:round;stroke-dasharray:none;stroke-opacity:1"
       x="53.643452"
       y="58.570278"
       id="text52310"
       inkscape:transform-center-x="-4.4252011"
       inkscape:transform-center-y="-1.361092"><tspan
         sodipodi:role="line"
         id="tspan52308"
         style="font-style:normal;font-variant:normal;font-weight:bold;font-stretch:normal;font-size:4.23333px;font-family:sans-serif;-inkscape-font-specification:'sans-serif Bold';text-align:center;text-anchor:middle;stroke:none;stroke-width:0.13"
         x="53.643452"
         y="58.570278">Apport vertical</tspan><tspan
         sodipodi:role="line"
         style="font-style:normal;font-variant:normal;font-weight:bold;font-stretch:normal;font-size:4.23333px;font-family:sans-serif;-inkscape-font-specification:'sans-serif Bold';text-align:center;text-anchor:middle;stroke:none;stroke-width:0.13"
         x="53.643452"
         y="63.861938"
         id="tspan52312">de nutriments</tspan></text>
  </g>
  <g
     inkscape:groupmode="layer"
     id="layer8"
     inkscape:label="isopycnals&lt;1-&gt;"
     style="display:inline"
     transform="translate(-11.35644,-5.9136319)">
    <g
       id="g13300"
       style="display:inline;stroke:#7f7f7f;stroke-width:0.364772;stroke-linecap:butt;stroke-miterlimit:4;stroke-dasharray:none;stroke-opacity:1"
       transform="translate(-32.348982,-12.558133)">
      <path
         id="path6854"
         style="fill:none;stroke:#7f7f7f;stroke-width:0.364772;stroke-linecap:butt;stroke-linejoin:miter;stroke-miterlimit:4;stroke-dasharray:none;stroke-opacity:1"
         d="m 44.185241,75.182496 c 0.1,0 0.248602,0.03757 0.401275,0.125711 2.186891,1.262602 5.425711,4.489391 9.94535,6.263008 3.610435,1.416823 6.020703,2.208287 8.030517,2.901796 4.267975,1.472713 3.803113,3.340029 7.257356,4.919779 2.964121,1.3556 5.532938,0.655047 8.939575,2.72147 3.406637,2.066423 7.133756,5.298104 16.216336,8.02135 0,0 9.04738,-1.366918 12.95727,-2.639696 3.86788,-1.259107 11.65313,-5.177681 19.34673,-7.012198 4.09004,-0.975259 10.41062,-1.807317 15.79069,-3.131761 3.90074,-0.960268 7.30485,-2.339828 8.50429,-2.78521 0.25811,-0.09584 0.41795,-0.107174 0.45381,-0.107174"
         sodipodi:nodetypes="cssssscssssc" />
      <path
         id="path6856"
         style="fill:none;stroke:#7f7f7f;stroke-width:0.364772;stroke-linecap:butt;stroke-linejoin:miter;stroke-miterlimit:4;stroke-dasharray:none;stroke-opacity:1"
         d="m 44.185241,80.579932 c 0.142948,0 0.457586,0.125775 0.665583,0.204903 4.212883,1.602702 5.005349,3.630905 9.379936,5.3476 3.610435,1.416823 6.815397,3.221628 8.825211,3.915137 4.267975,1.472713 4.835867,3.666044 7.837568,5.068066 2.953146,1.379344 5.499085,0.459521 8.905722,2.525944 3.406637,2.066422 6.093757,5.991978 15.176337,8.701028 0,0 12.876512,-2.44288 16.786402,-3.71566 3.86788,-1.25911 10.02544,-5.540604 17.71904,-7.375121 4.09004,-0.975259 10.26054,-1.350323 15.64061,-2.674767 3.83094,-0.943084 5.82231,-1.791491 6.56846,-2.077575 0.17709,-0.0679 0.30061,-0.09285 0.33836,-0.09291"
         sodipodi:nodetypes="cssssscssssc" />
      <path
         id="path6848"
         style="fill:none;stroke:#7f7f7f;stroke-width:0.364772;stroke-linecap:butt;stroke-linejoin:miter;stroke-miterlimit:4;stroke-dasharray:none;stroke-opacity:1"
         d="m 72.629356,28.006459 c 0.02659,0.09925 0.122126,0.154609 0.268462,0.211328 3.873908,1.501502 10.022184,5.769152 16.275461,8.288698 1.704107,0.686612 7.133793,2.597133 13.218181,7.138474 1.22149,0.911709 7.61787,3.424785 9.02878,4.714509 3.79086,3.465256 8.58347,4.844915 12.11396,6.933104 -0.13205,4.317841 -0.40517,11.997794 -1.71082,16.065065 -1.30565,4.067271 -3.37646,6.006143 -4.98503,9.302504 -1.60857,3.296361 -4.16917,5.021661 -7.71949,6.449508 -3.55032,1.427847 -10.042324,4.620829 -14.143168,5.863553 -2.960227,-0.303456 -8.862355,-3.642433 -10.724224,-5.294274 -1.861869,-1.651841 -6.593956,-5.383921 -9.083056,-6.521677 -2.4891,-1.137756 -3.937846,-0.687098 -5.095253,-1.218684 -1.157407,-0.531586 -2.301012,-1.638199 -3.973321,-2.417318 -1.672309,-0.779119 -3.703614,-1.390143 -6.504938,-2.531042 -2.801324,-1.140899 -4.19179,-3.415751 -6.31909,-4.311932 -2.099354,-0.884408 -4.819363,-3.257047 -8.916339,-4.539714 -0.05454,-0.01707 -0.07423,-0.02263 -0.17423,-0.02263"
         sodipodi:nodetypes="csssscssscsssssssc" />
      <path
         id="path6838"
         style="fill:none;stroke:#7f7f7f;stroke-width:0.364772;stroke-linecap:butt;stroke-linejoin:miter;stroke-miterlimit:4;stroke-dasharray:none;stroke-opacity:1"
         d="m 77.562046,26.563757 c 0.02152,0.07067 0.07091,0.126416 0.158625,0.159739 3.819456,1.451067 9.121667,5.978542 12.624398,7.741577 1.641076,0.826006 9.276751,3.02151 15.361141,7.562853 2.23159,1.665643 7.98011,4.861516 13.13698,8.057714 4.51337,2.797356 7.24434,2.235767 9.76066,3.72402 0,0 -0.65766,7.011886 -0.52525,10.479673 0.0761,1.992031 -1.48437,6.599616 -2.35822,8.72946 -0.79144,1.928974 -1.98502,2.923322 -2.73012,4.629784 -1.56781,3.590623 -2.53995,6.401083 -5.49483,9.225793 -2.95488,2.82472 -6.68584,3.92151 -10.51901,5.58872 -3.83317,1.66721 -12.020045,3.93376 -12.020045,3.93376 -2.053815,-0.59744 -9.306224,-3.81292 -10.66366,-4.90832 -1.357435,-1.0954 -5.544939,-3.48081 -8.034056,-4.82687 -2.489117,-1.34606 -6.666065,-3.57289 -9.042881,-4.36049 -2.376816,-0.787602 -4.249548,-1.581414 -6.543175,-2.563366 -2.293627,-0.981952 -5.123413,-3.221159 -7.577687,-4.596479 -2.409512,-1.350236 -6.640049,-3.942682 -8.758464,-4.532456 -0.03936,-0.01096 -0.11378,-0.02321 -0.150246,-0.02321"
         sodipodi:nodetypes="cssssccsssscssssssc" />
    </g>
  </g>
  <g
     inkscape:groupmode="layer"
     id="layer2"
     inkscape:label="jet&lt;2-&gt;"
     style="display:inline"
     transform="translate(-11.35644,-5.9136319)">
    <g
       id="g19360"
       transform="matrix(0.90171722,0,0,0.90171722,9.3212838,8.0470714)"
       style="display:inline">
      <path
         style="display:none;fill:#288330;fill-opacity:0.812791;fill-rule:nonzero;stroke:#228833;stroke-width:0.2;stroke-linecap:butt;stroke-linejoin:miter;stroke-dasharray:none;stroke-opacity:1;filter:url(#selectable_hidder_filter)"
         d="m 26.800198,9.9605965 c 1.928174,0 3.737375,-0.1622918 5.469977,-0.4205443 0.433005,-0.064541 0.861124,-0.1350614 1.284985,-0.2105102 2.115804,-0.3766209 4.135535,-0.8781115 6.120878,-1.3719276 1.993133,-0.4957535 3.95095,-0.9835916 5.985161,-1.3490017 2.029599,-0.3645816 4.126443,-0.6053994 6.380712,-0.6053996 2.228145,2e-7 4.214522,0.1996296 6.138986,0.5011767 1.932367,0.3027853 3.790753,0.706061 5.791388,1.1174424 1.993558,0.409926 4.110082,0.8237831 6.514598,1.1344382 0.48095,0.062137 0.973395,0.1201454 1.478738,0.1731884 2.022078,0.212246 4.247554,0.3446628 6.766848,0.3446628 V 7.6311218 c -2.46045,0 -4.628664,-0.1292559 -6.595334,-0.3356861 C 71.645291,7.2438096 71.165857,7.187336 70.697405,7.1268138 68.354925,6.8241734 66.286428,6.4203038 64.303205,6.0125029 62.327058,5.606157 60.416903,5.1917055 58.435237,4.8811955 56.44567,4.5694474 54.372524,4.3602134 52.041915,4.3602133 c -2.373642,1e-7 -4.57009,0.253855 -6.671201,0.6312826 -2.096502,0.3765994 -4.106813,0.8781072 -6.091257,1.3716995 -1.992232,0.4955294 -3.959526,0.9833844 -6.012229,1.3487732 -0.409842,0.072953 -0.822683,0.1409418 -1.239274,0.2030366 -1.665781,0.2482926 -3.393131,0.4025915 -5.227756,0.4025915 z"
         id="path18745"
         sodipodi:nodetypes="csc"
         inkscape:original-d="m 26.800198,9.1390966 c 9.406997,0 15.985897,-3.9573834 25.241715,-3.9573834 9.117501,0 14.241198,3.2709085 26.690556,3.2709085"
         inkscape:path-effect="#path-effect18864"
         class="UnoptimicedTransforms"
         transform="translate(4.114432,10.53168)" />
      <path
         style="fill:#288330;fill-opacity:0.811765;stroke:#228833;stroke-width:0.264583px;stroke-linecap:butt;stroke-linejoin:miter;stroke-opacity:1"
         d="m 73.028005,22.576334 -1.063449,0.275824 3.834776,0.498252 0.358326,-1.585806 -1.181562,0.306459 C 73.569838,21.248266 72.446293,20.469599 71.508007,19.723657 71.261535,19.52771 71.027215,19.334302 70.804507,19.142578 69.678084,18.172868 68.832715,17.25577 68.035114,16.353971 67.226607,15.439842 66.460187,14.532567 65.498182,13.618193 64.515603,12.684263 63.323121,11.736645 61.653579,10.737275 59.920452,9.6998435 57.953581,8.8182101 55.863646,8.0133252 53.745612,7.197618 51.499264,6.4594704 49.249913,5.7193207 46.959098,4.965528 44.663806,4.2094159 42.428105,3.3493258 41.977457,3.1759579 41.530175,2.9989925 41.085351,2.8165639 39.291861,2.0810278 37.545708,1.2630151 35.886029,0.31019102 l -2.22069,0.71344708 c 1.754753,0.9904927 3.590532,1.8370618 5.459887,2.592654 0.46319,0.1872203 0.929222,0.3688368 1.395852,0.545821 2.30667,0.8748772 4.66027,1.6403631 6.942577,2.3812305 2.258794,0.733235 4.447874,1.4424814 6.505844,2.2238516 2.022781,0.7680097 3.90572,1.6002868 5.563634,2.5754698 1.609297,0.946586 2.767526,1.846942 3.73358,2.743492 0.954014,0.885377 1.71474,1.761847 2.55063,2.68146 0.818678,0.900678 1.701365,1.833114 2.875156,2.821441 0.232057,0.19539 0.474588,0.393004 0.73123,0.592803 0.979488,0.762544 2.147756,1.557224 3.604276,2.394473 z"
         id="path18862"
         sodipodi:nodetypes="cccc"
         class="UnoptimicedTransforms"
         inkscape:path-effect="#path-effect31895;#path-effect32155"
         inkscape:original-d="M 78.460184,10.178267 81.459098,8.4468425 78.442102,6.6388642 Z"
         transform="translate(4.114432,10.53168)" />
    </g>
    <text
       xml:space="preserve"
       style="font-weight:bold;font-size:4.23333px;line-height:normal;font-family:'Open Sans';-inkscape-font-specification:'Open Sans Bold';text-decoration-color:#000000;fill:#228833;fill-opacity:1;stroke:none;stroke-width:0.529167;stroke-linejoin:round;stroke-opacity:1;stop-color:#000000"
       x="68.361847"
       y="16.731882"
       id="text19149"><tspan
         sodipodi:role="line"
         id="tspan19147"
         style="font-size:4.23333px;fill:#228833;fill-opacity:1;stroke:none;stroke-width:0.529167"
         x="68.361847"
         y="16.731882">Apport horizontal</tspan><tspan
         sodipodi:role="line"
         style="font-size:4.23333px;fill:#228833;fill-opacity:1;stroke:none;stroke-width:0.529167"
         x="68.361847"
         y="22.023544"
         id="tspan19201">de nutriments</tspan></text>
  </g>
  <g
     inkscape:groupmode="layer"
     id="layer3"
     inkscape:label="vorticity&lt;3-&gt;"
     style="display:inline"
     transform="translate(-11.35644,-5.9136319)">
    <g
       id="use59711"
       transform="matrix(0.53172516,-0.03684617,0.03089701,0.49390244,32.135974,25.106514)"
       style="display:inline;opacity:1;stroke-width:0.97357;stroke-dasharray:none"
       inkscape:path-effect="#path-effect59713;#path-effect59727;#path-effect58467"
       class="fromclone  UnoptimicedTransforms">
      <path
         style="opacity:1;fill:none;fill-opacity:0.558383;fill-rule:evenodd;stroke:#8a63a1;stroke-width:0.97357;stroke-linecap:round;stroke-linejoin:bevel;stroke-dasharray:none;stroke-opacity:1"
         id="path59715"
         sodipodi:type="arc"
         sodipodi:cx="106.54934"
         sodipodi:cy="11.792646"
         sodipodi:rx="8.6396818"
         sodipodi:ry="8.6396818"
         sodipodi:start="6.0656754"
         sodipodi:end="4.712389"
         sodipodi:arc-type="arc"
         sodipodi:open="true"
         d="m 113.78368,24.905467 c 3.69513,-0.321274 5.82601,-1.735507 5.31646,-3.555231 -0.51865,-1.852244 -3.65988,-3.737958 -7.88004,-4.688017 -4.28315,-0.964239 -8.66549,-0.738923 -10.86328,0.564939 -2.179368,1.292941 -1.687412,3.338391 1.16369,5.082111"
         inkscape:original-d="m 115.59077,24.5126 c -2.55812,1.038753 -6.91043,1.036895 -10.92244,-0.01337 -4.07635,-1.067104 -6.96688,-2.996149 -7.158715,-4.823337 -0.195102,-1.858309 2.441189,-3.178816 6.561505,-3.26726 4.099,-0.08798 8.68053,1.065328 11.40067,2.8464" />
      <path
         sodipodi:type="star"
         style="opacity:1;fill:#8a63a1;fill-opacity:1;fill-rule:evenodd;stroke:#8a63a1;stroke-width:1.1618;stroke-linecap:round;stroke-linejoin:round;stroke-miterlimit:4;stroke-dasharray:none;stroke-opacity:1"
         id="path59717"
         inkscape:flatsided="true"
         sodipodi:sides="3"
         sodipodi:cx="91.184914"
         sodipodi:cy="7.9610753"
         sodipodi:r1="2.3263381"
         sodipodi:r2="1.163169"
         sodipodi:arg1="0"
         sodipodi:arg2="1.0471976"
         inkscape:rounded="0"
         inkscape:randomized="0"
         inkscape:transform-center-x="-0.48789388"
         transform="matrix(0.83890521,0,0,0.8370519,31.230292,-3.4876934)"
         inkscape:transform-center-y="0.10517696"
         d="M 86.658899,32.558233 85.785974,30.533732 82.20874,31.318484 Z"
         inkscape:original-d="m 103.10934,28.957405 -4.340801,-1.27169 3.602751,-0.79035 z" />
    </g>
    <g
       id="g41542"
       transform="matrix(0.53172516,-0.03684617,0.03089701,0.49390244,7.8295997,32.925583)"
       style="display:inline;opacity:1;stroke-width:0.97357;stroke-dasharray:none"
       inkscape:path-effect="#path-effect58467">
      <path
         style="opacity:1;fill:none;fill-opacity:0.558383;fill-rule:evenodd;stroke:#8a63a1;stroke-width:0.97357;stroke-linecap:round;stroke-linejoin:bevel;stroke-dasharray:none;stroke-opacity:1"
         id="path34103"
         sodipodi:type="arc"
         sodipodi:cx="106.54934"
         sodipodi:cy="11.792646"
         sodipodi:rx="8.6396818"
         sodipodi:ry="8.6396818"
         sodipodi:start="6.0656754"
         sodipodi:end="4.712389"
         sodipodi:arc-type="arc"
         sodipodi:open="true"
         d="m 115.59077,24.5126 c -2.55812,1.038753 -6.91043,1.036895 -10.92244,-0.01337 -4.07635,-1.067104 -6.96688,-2.996149 -7.158715,-4.823337 -0.195102,-1.858309 2.441189,-3.178816 6.561505,-3.26726 4.099,-0.08798 8.68053,1.065328 11.40067,2.8464" />
      <path
         sodipodi:type="star"
         style="opacity:1;fill:#8a63a1;fill-opacity:1;fill-rule:evenodd;stroke:#8a63a1;stroke-width:1.1618;stroke-linecap:round;stroke-linejoin:round;stroke-miterlimit:4;stroke-dasharray:none;stroke-opacity:1"
         id="path41489"
         inkscape:flatsided="true"
         sodipodi:sides="3"
         sodipodi:cx="91.184914"
         sodipodi:cy="7.9610753"
         sodipodi:r1="2.3263381"
         sodipodi:r2="1.163169"
         sodipodi:arg1="0"
         sodipodi:arg2="1.0471976"
         inkscape:rounded="0"
         inkscape:randomized="0"
         inkscape:transform-center-x="-0.48789388"
         transform="matrix(0.83890521,0,0,0.8370519,31.230292,-3.4876934)"
         inkscape:transform-center-y="0.10517696"
         d="m 103.10934,28.957405 -4.340801,-1.27169 3.602751,-0.79035 z" />
    </g>
    <text
       xml:space="preserve"
       style="font-size:3.88056px;line-height:1.25;font-family:sans-serif;display:inline;fill:#8a63a1;fill-opacity:1;stroke-width:0.264583"
       x="55.044941"
       y="37.118023"
       id="text64374"><tspan
         sodipodi:role="line"
         id="tspan64372"
         style="font-size:3.88056px;fill:#8a63a1;fill-opacity:1;stroke-width:0.264583"
         x="55.044941"
         y="37.118023">+</tspan></text>
    <text
       xml:space="preserve"
       style="font-size:3.88056px;line-height:1.25;font-family:sans-serif;display:inline;fill:#8a63a1;fill-opacity:1;stroke-width:0.264583"
       x="97.120789"
       y="29.917847"
       id="text64738"><tspan
         sodipodi:role="line"
         id="tspan64736"
         style="font-size:3.88056px;fill:#8a63a1;fill-opacity:1;stroke-width:0.264583"
         x="97.120789"
         y="29.917847">-</tspan></text>
  </g>
  <g
     inkscape:groupmode="layer"
     id="layer4"
     inkscape:label="circulation&lt;4-&gt;"
     style="display:inline"
     transform="translate(-11.35644,-5.9136319)">
    <g
       id="g68362"
       transform="matrix(0.87125725,0,0,0.87201179,5.781603,8.9940873)"
       inkscape:path-effect="#path-effect68370"
       style="display:inline;stroke-width:1.14727">
      <path
         style="opacity:1;fill:none;fill-opacity:1;fill-rule:evenodd;stroke:#efe32b;stroke-width:1.47118;stroke-linecap:round;stroke-linejoin:round;stroke-miterlimit:4;stroke-dasharray:none;stroke-opacity:1"
         id="path64871"
         inkscape:path-effect="#path-effect65045"
         sodipodi:type="arc"
         sodipodi:cx="178.26178"
         sodipodi:cy="74.136597"
         sodipodi:rx="22.138166"
         sodipodi:ry="28.741894"
         d="m 197.08391,73.681077 c 0.87779,1.060906 1.68615,2.239308 2.40398,3.53736 1.3537,-1.325885 2.68065,-2.77279 3.96213,-4.323581 m -24.44305,27.790834 c -0.26416,0.43441 -0.54885,0.86742 -0.85489,1.29801 -0.7273,1.04936 -1.5716,2.05788 -2.51402,3.01383 0.71538,0.6971 1.54981,1.31385 2.51402,1.82936 0.40569,0.20593 0.83015,0.39064 1.27195,0.55414 M 159.38581,87.311608 c -1.32572,-0.458944 -2.62794,-1.054714 -3.88726,-1.782012 -0.93595,1.710461 -1.80076,3.501414 -2.57248,5.361611 m 13.10174,-35.892208 c -0.0654,-1.577282 0.0315,-3.278497 0.32212,-5.062623 -1.63799,0.351071 -3.36065,0.913117 -5.11308,1.686822 m 29.48537,-3.399604 c 0.70178,-0.184652 1.41318,-0.333032 2.12872,-0.441843 0.82123,-0.118618 1.64746,-0.191754 2.47583,-0.220298 0.12432,-0.932175 0.21109,-1.874908 0.25707,-2.8266 0.0378,-0.836675 0.0389,-1.681013 5e-5,-2.527067"
         transform="matrix(0.70158103,0,0,0.70211589,-27.706652,18.284416)"
         class="UnoptimicedTransforms" />
      <path
         d="m 200.82578,66.222649 c 0,17.136494 -10.11171,34.218941 -22.6737,38.182651 -12.6609,3.99492 -22.99799,-6.83395 -22.99799,-24.215539 0,-17.381589 10.33709,-34.532949 22.99799,-38.281823 12.56199,-3.719592 22.6737,7.178216 22.6737,24.314711 z"
         id="path66996"
         inkscape:path-effect="#path-effect66994"
         inkscape:original-d="M 200.39995,74.136597 A 22.138166,28.741894 0 0 1 178.26178,102.87849 22.138166,28.741894 0 0 1 156.12361,74.136597 22.138166,28.741894 0 0 1 178.26178,45.394703 22.138166,28.741894 0 0 1 200.39995,74.136597 Z"
         class="UnoptimicedTransforms"
         style="fill:none;stroke:#efe32b;stroke-width:1.14727;stroke-opacity:1"
         transform="matrix(0.70158103,0,0,0.70211589,-27.706652,18.284416)" />
    </g>
  </g>
  <g
     id="g636"
     inkscape:label="mld&lt;5-&gt;"
     style="display:inline"
     transform="translate(-81.076247,28.922613)"
     inkscape:groupmode="layer">
    <g
       id="g3997"
       clip-path="url(#clipPath7705)">
      <path
         style="display:inline;opacity:1;fill:none;stroke:#de0606;stroke-width:0.870848;stroke-dasharray:none;stroke-opacity:1;stop-color:#000000"
         d="m 137.05882,97.68572 c 25.71573,-7.521752 23.69853,-22.878057 30.09229,-24.553857 m 27.02475,7.847342 c -22.65115,6.625374 -20.78496,-9.482784 -27.02475,-7.847342"
         id="path512"
         sodipodi:nodetypes="cc"
         class="UnoptimicedTransforms"
         transform="matrix(1.0126777,0,0,1.0128057,-6.8119099,-47.354914)"
         inkscape:original-d="m 138.54718,75.990537 c 25.56168,0 23.49525,-25.963967 30.20226,-25.963967"
         inkscape:path-effect="#path-effect1229;#path-effect1390" />
    </g>
    <text
       xml:space="preserve"
       style="font-style:normal;font-variant:normal;font-weight:bold;font-stretch:normal;font-size:4.23333px;font-family:'Open Sans';-inkscape-font-specification:'Open Sans Bold';text-align:center;text-anchor:middle;opacity:1;fill:#de0606;fill-opacity:1;stroke:none;stroke-width:0.881944;stroke-dasharray:none;stroke-opacity:1;stop-color:#000000"
       x="212.29272"
       y="33.255581"
       id="text4011"><tspan
         sodipodi:role="line"
         style="font-style:normal;font-variant:normal;font-weight:bold;font-stretch:normal;font-size:4.23333px;font-family:'Open Sans';-inkscape-font-specification:'Open Sans Bold';text-align:center;text-anchor:middle;fill:#de0606;fill-opacity:1;stroke-width:0.881944"
         x="212.29272"
         y="33.255581"
         id="tspan4069">Amincissement de la</tspan><tspan
         sodipodi:role="line"
         style="font-style:normal;font-variant:normal;font-weight:bold;font-stretch:normal;font-size:4.23333px;font-family:'Open Sans';-inkscape-font-specification:'Open Sans Bold';text-align:center;text-anchor:middle;fill:#de0606;fill-opacity:1;stroke-width:0.881944"
         x="212.29272"
         y="38.547241"
         id="tspan4073">couche de mlange</tspan></text>
  </g>
</svg>
